<?xml version="1.0" encoding="UTF-8"?>
<svg id="a" data-name="Layer 1" xmlns="http://www.w3.org/2000/svg" viewBox="0 0 120 54.99">
  <defs>
    <style>
      .d {
        fill: #fff;
      }

      .e {
        fill: #2c529f;
      }
    </style>
  </defs>
  <path d="m97.39,12.25V3.82h-8.07c-2.81,0-5.76.82-7.83,3.05h0s-.47.51-.47.51v.15c-1.25,1.63-1.76,3.57-1.96,5.54h-2.67v1.29c-1.9-1.08-4.03-1.63-6.2-1.63-.7,0-1.32.21-1.98.33h-13.32v1.16c-.68-.29-1.3-.69-2.02-.88-1.49-.42-3.04-.62-4.62-.62s-3,.22-4.43.58L48.54,0h-14.39s-.42,1.18-.42,1.18l-.7,1.97-4.34,12.24v-6.86l-7.21,4.41L0,26.07l20.45,12.53-4.66,13.15h14.39l4.83-13.61c.1.22.13.46.24.67,1.19,2.26,3.02,4.12,5.26,5.34l.17.11.13.04c2.27,1.15,4.81,1.64,7.44,1.64,1.4,0,2.78-.2,4.12-.52h.24l.22-.06h0c.73-.19,1.37-.59,2.06-.89v10.51h14.01v-9.19c.36.03.7.14,1.06.14,2.37,0,4.72-.54,6.76-1.77l-.02.02.07-.04.06-.04-.07.04c.78-.48,1.43-1.13,2.06-1.77v3.24h14.01v-2.9l27.16-16.64-22.61-13.82Zm-20.51,2.33h.02s0,0-.01,0c0,0,0,0,0,0h0Z"/>
  <path id="b" data-name="path1407" class="d" d="m23.95,16.98l-14.87,9.09,14.87,9.11v-5.22l-6.78-3.89,6.78-3.91v-5.18Z"/>
  <path id="c" data-name="path2953" class="d" d="m96.05,16.98l14.87,9.09-14.87,9.11v-5.22l6.78-3.89-6.78-3.91v-5.18Z"/>
  <g>
    <polygon class="e" points="37.5 4.74 22.5 47 26.83 47 41.83 4.74 37.5 4.74"/>
    <path class="e" d="m89.32,8.56c-1.96,0-3.41.51-4.36,1.53-.93,1.01-1.4,2.53-1.4,4.58v3.13h-2.44v3.87h2.44v19.2h4.53v-19.2h4.56v-3.87h-4.56v-3.18c0-.52.11-.94.33-1.27.22-.33.55-.49.98-.49h3.24v-4.31h-3.33Z"/>
    <path class="e" d="m48.25,17.47c-2.1,0-3.9.39-5.4,1.18-1.48.77-2.61,1.9-3.4,3.38-.79,1.48-1.18,3.27-1.18,5.36v3.8c0,2.12.39,3.93,1.18,5.42.79,1.5,1.92,2.64,3.4,3.42,1.5.79,3.3,1.18,5.4,1.18,1.19,0,2.3-.14,3.36-.42,1.07-.28,2.02-.69,2.87-1.22.84-.55,1.56-1.21,2.13-1.98l-3.27-3.16c-.64.79-1.39,1.39-2.27,1.82-.87.43-1.79.64-2.76.64-1.76,0-3.13-.5-4.09-1.49-.95-.99-1.42-2.4-1.42-4.22v-3.8c0-1.78.48-3.16,1.44-4.13.96-.98,2.32-1.47,4.07-1.47.95,0,1.86.2,2.73.6.87.4,1.64.97,2.29,1.71l3.27-2.93c-.56-.79-1.27-1.45-2.11-2-.84-.55-1.8-.96-2.87-1.24-1.05-.3-2.18-.44-3.38-.44Z"/>
    <path class="e" d="m77.03,21.78c-.61-1.41-1.5-2.47-2.67-3.2-1.16-.74-2.55-1.11-4.18-1.11-1.38,0-2.63.37-3.76,1.11-.89.57-1.64,1.34-2.27,2.31v-3.08h-4.53v32.44h4.53v-12.32c.5.94,1.18,1.69,2.04,2.26,1.07.68,2.32,1.02,3.76,1.02,1.67,0,3.11-.36,4.31-1.09,1.2-.74,2.11-1.81,2.73-3.2.62-1.39.93-3.07.93-5.02v-5.02c0-1.99-.3-3.68-.91-5.09Zm-3.62,10.11c0,1.66-.41,2.95-1.25,3.87-.81.9-1.97,1.35-3.47,1.35-.96,0-1.78-.19-2.46-.56-.67-.37-1.18-.9-1.54-1.6-.35-.7-.53-1.54-.53-2.53v-6.29c0-.96.18-1.79.53-2.46.36-.7.87-1.22,1.54-1.58.68-.35,1.5-.53,2.46-.53,1.5,0,2.65.46,3.47,1.4.83.93,1.25,2.24,1.25,3.93v5Z"/>
  </g>
</svg>